<svg fill="black" stroke="#444444" stroke-width="2"
 shape-rendering="geometricPrecision" text-rendering="geometricPrecision" image-rendering="optimizeQuality" fill-rule="evenodd" clip-rule="evenodd" xmlns="http://www.w3.org/2000/svg" viewBox="0 0 1000 1150">
  <path d="M 400.96 522.46 l 74.34 -41.56 v -50.41 c -12.75 -7.47 -25.72 -14.71 -38.4 -22.26 c -0.17 0.13 -0.34 0.26 -0.53 0.37 l -77.67 44.92 v 43.32 l 0.08 0.05 l 42.18 25.57 z m 36.25 220.13 l 38.09 -21.3 v -49.97 l -76.57 -44.46 l -40.07 23.13 c 0.03 0.74 0.04 1.58 0.04 2.56 v 44.62 l 78.51 45.42 z m 48.63 -21.85 l 37.29 21.59 l 0.95 0.52 l 79.22 -45.81 l 0.02 -45.91 l -41.28 -23.83 l -76.2 44.31 v 49.13 z m 44.61 30.24 l 0.03 2.21 v 48.4 c 0 1.42 -0.66 2.69 -1.94 3.35 l -43.69 25.42 c -3.2 1.86 -3.58 2.12 -6.77 0.23 c -14.38 -8.47 -29.07 -16.62 -43.36 -25.2 c -3.33 -1.92 -4.01 -2.08 -3.93 -5.95 l 0.01 -48.75 l -76.91 -44.49 l -0.19 -0.12 l -40.63 23.63 c -3.2 1.86 -3.58 2.12 -6.77 0.24 c -14.38 -8.48 -29.07 -16.62 -43.36 -25.2 c -3.33 -1.93 -4.01 -2.09 -3.93 -5.96 l 0.01 -51.35 c 0 -1.84 1.33 -2.64 2.66 -3.41 l 0.17 -0.09 l 1.32 -0.74 l 41.55 -23.22 v -89.47 c -13.88 -8.14 -28.02 -16 -41.78 -24.26 c -3.33 -1.93 -4.01 -2.09 -3.93 -5.96 l 0.01 -51.35 c 0 -1.84 1.33 -2.64 2.66 -3.41 l 0.17 -0.09 l 1.32 -0.74 l 44.01 -24.6 c 1.92 -1.06 2.51 -1.01 4.39 0.05 l 39.78 23.03 l 2.45 1.36 l 76.99 -44.52 l 0.01 -50.41 c 0 -1.84 1.33 -2.64 2.66 -3.41 l 0.17 -0.09 l 1.32 -0.74 l 44.01 -24.6 c 1.92 -1.06 2.51 -1.01 4.39 0.06 l 39.78 23.03 l 2.52 1.39 c 4.23 2.26 4.83 2.58 4.83 9.47 v 45.17 l 76.58 44.28 l 0.16 0.1 l 43.24 -24.17 c 1.91 -1.06 2.51 -1.01 4.39 0.05 l 39.78 23.03 l 2.52 1.4 c 4.22 2.26 4.83 2.58 4.83 9.47 v 48.39 c 0 1.42 -0.66 2.69 -1.95 3.35 l -43.01 25.03 l -0.03 88.49 l 38.66 22.38 l 2.52 1.39 c 4.22 2.26 4.83 2.59 4.83 9.47 v 48.39 c 0 1.43 -0.66 2.69 -1.95 3.36 l -43.69 25.41 c -3.2 1.86 -3.57 2.12 -6.76 0.24 c -13.88 -8.18 -28.03 -16.05 -41.85 -24.3 l -0.46 0.32 l -77.84 45.01 z m -86.81 -2.56 l 37.65 22.68 l 36.17 -21.96 l 0.07 -0.42 l -35.52 -22.12 c -0.46 0.13 -0.94 0.2 -1.44 0.2 c -0.23 0 -0.47 -0.01 -0.69 -0.05 l -36.24 21.67 z m 34.01 73.78 v -44.84 l -38.01 -22.62 c -0.53 0.08 -1.07 0.06 -1.61 -0.06 v 44.24 l 39.62 23.28 z m 44.26 -67 l -37.02 22.18 v 44.87 l 38.35 -22.65 v -44.58 c -0.44 0.13 -0.88 0.19 -1.33 0.18 z m -36.07 -323.9 v 49.67 l 74.1 42.94 l 42.1 -24.33 l 0.24 -0.14 l 0.02 -46.21 l -76.18 -44.06 c -0.35 -0.2 -0.68 -0.45 -0.96 -0.74 l -39.32 22.87 z m -42.2 -81.36 l 37.65 22.68 l 36.55 -22.19 l -36.75 -22.88 l -37.45 22.39 z m 34.01 73.79 v -44.85 l -39.62 -23.57 v 45.13 l 39.62 23.29 z m 45.59 -67.8 l -38.35 22.97 v 44.87 l 38.35 -22.65 v -45.19 z m 124.53 264.74 c -0.03 -0.25 -0.04 -0.49 -0.04 -0.74 l 0.05 -89.54 c -13.02 -7.64 -26.27 -15.03 -39.22 -22.74 c -0.35 0.39 -0.78 0.74 -1.26 1.02 l -41.95 24.24 v 84.19 l 43.69 25.22 l 38.73 -21.65 z m -35.06 33.76 c -0.68 0.24 -1.43 0.34 -2.16 0.28 v 43.56 l 39.62 23.29 v -44.85 l -37.46 -22.28 z m 3.45 -6.66 l 37.64 22.68 l 36.56 -22.19 l -36.76 -22.88 l -37.44 22.39 z m 79.6 5.99 l -38.36 22.97 v 44.87 l 38.36 -22.65 v -45.19 z m -344.06 -11.88 l 42.38 -24.47 v -86.86 l -39.11 -23.72 l -40.99 23.85 v 89.37 l 37.37 21.64 l 0.35 0.19 z m -42.12 -16.33 l -0.23 0.01 l -0.32 -0.01 l -37.17 22.22 l 37.65 22.68 l 36.55 -22.19 l -36.48 -22.71 z m -3.71 96.01 v -44.85 l -39.62 -23.57 v 45.13 l 39.62 23.29 z m 45.59 -67.8 l -38.35 22.97 v 44.87 l 38.35 -22.65 v -45.19 z m -0.61 -152.95 c 0.07 -0.67 0.28 -1.32 0.61 -1.94 v -43.61 l -38.35 22.97 v 44.87 l 37.74 -22.29 z m -78.99 -51.54 l 37.65 22.68 l 36.55 -22.19 l -36.75 -22.88 l -37.45 22.39 z m 34.01 73.79 v -44.85 l -39.62 -23.57 v 45.13 l 39.62 23.29 z m 309.27 -73.79 l 37.64 22.68 l 36.56 -22.19 l -36.76 -22.88 l -37.44 22.39 z m 34.01 73.79 v -44.85 l -39.62 -23.57 v 45.13 l 39.62 23.29 z m 45.59 -67.8 l -38.36 22.97 v 44.87 l 38.36 -22.65 v -45.19 z m -218.42 206.67 v -82.99 l -73.25 -43.58 v 83.52 l 73.25 43.05 z m 80.02 -125.5 l -71.02 42.56 v 83.02 l 71.02 -41.95 v -83.63 z m -75.81 -48.7 l -69.33 41.45 l 69.65 41.97 l 67.68 -41.09 l -68 -42.33 z"/>
</svg>