<svg version="1.0"
    xmlns="http://www.w3.org/2000/svg" width="1600" height="1664" viewBox="0 0 1200 1248">
    <path fill="#e83f33" d="M244 1.3c-1.9.7-55.7 31.4-119.5 68.1-77.3 44.5-117 67.9-119.1 70.1-1.7 1.9-3.6 5.2-4.2 7.3-1.6 5.4-1.7 794.8-.1 800.5.6 2.2 2.5 5.4 4.2 7.2 4.2 4.4 465.7 270 471.3 271.3 2.6.6 5.5.5 8.4-.3 6.3-1.6 466.6-266.6 470.7-270.9 1.7-1.9 3.6-5.1 4.2-7.3.8-2.6 1.1-43.9 1.1-130.8v-127l112.2-64.5c105.8-60.9 112.3-64.7 115-68.9l2.8-4.5V414.8c0-148.9.3-140.5-5.6-145.9-1.6-1.4-55.5-32.9-119.9-70l-117-67.4h-13L821 197.3c-63 36.3-116.6 67.3-119.2 69-2.6 1.7-5.7 4.9-7 7.2l-2.3 4-.5 128.9-.5 128.9-94.5 54.5c-52 29.9-95.3 54.7-96.2 54.9-1.7.5-1.8-11.8-1.8-248.7V146.7l-2.5-4.3c-3.1-5.2 10.9 3.1-129.6-77.7C249.1-3.1 251.9-1.7 244 1.3zM352.3 100c49.3 28.3 89.6 51.7 89.6 52 0 .3-43.2 25.3-96 55.7l-96.1 55.2-95.9-55.2C101.2 177.3 58 152.3 58 152c0-.3 43.1-25.3 95.8-55.6l95.7-55.1 6.6 3.6c3.7 2 47 26.8 96.2 55.1zm685.8 127c51.9 29.9 94.8 54.6 95.2 55 1.1 1-189.2 110.5-191.8 110.4-2.6-.1-190.6-108.6-190.5-109.9.1-1.5 189.2-110.4 191.1-110.1.9.2 44.1 24.8 96 54.6zM139 242.8l91.5 52.7.5 261 .5 261 2.2 3.5c1.2 1.9 3.4 4.4 5 5.6 1.5 1.1 52.4 30.1 113.1 64.4L462 953.3v110.4c0 60.6-.4 110.3-.9 110.3-.4 0-95.7-54.6-211.7-121.4L38.5 931.2 38.2 558 38 184.9l4.7 2.6c2.7 1.4 46 26.3 96.3 55.3zm323 183.7V667l-3.7 2.4c-5 3.2-188.2 108.6-188.8 108.6-.3 0-.5-108.6-.5-241.3l.1-241.2 95.7-55.1c52.6-30.3 96-54.9 96.5-54.7.4.2.7 108.6.7 240.8zm365.1-55.3l95.9 55.2v109.4c0 103.8-.1 109.4-1.7 108.8-1-.4-44.4-25.3-96.5-55.3L730 534.8V425.4c0-60.2.3-109.4.6-109.4.4 0 43.8 24.8 96.5 55.2zm326.9 53.5c0 59.9-.4 109.3-.8 109.8-.7 1.1-190.4 110.5-191.6 110.5-.3 0-.6-49.2-.6-109.4V426.2l95.7-55.1c52.7-30.3 96.1-55.1 96.5-55.1.5 0 .8 48.9.8 108.7zm-345.6 199c80.7 46.5 94.6 54.8 93.2 55.9-.9.6-31.5 18.2-67.9 39-36.4 20.8-130.7 74.6-209.6 119.6l-143.4 81.9-4.6-2.5c-27.4-15-186.3-105.5-186.3-106.2-.1-1.5 420.5-243.4 422.2-242.8.8.3 44.2 25.1 96.4 55.1zm114.4 197.9l-.3 109.6-210.8 121.4c-116 66.8-211.3 121.4-211.8 121.4s-.9-44.6-.9-110.3V953.3l211.3-120.6c116.1-66.3 211.5-120.6 212-120.7.4 0 .6 49.3.5 109.6z"/>
</svg>