<svg id="wave" style="transform:rotate(0deg); transition: 0.3s" viewBox="0 0 1440 300" version="1.1" xmlns="http://www.w3.org/2000/svg">
<defs>
<linearGradient id="sw-gradient-0" x1="0" x2="0" y1="1" y2="0">
  <stop stop-color="rgba(98.679, 243, 62, 1)" offset="0%"></stop>
  <stop stop-color="rgba(4.098, 119.887, 19.86, 1)" offset="100%"></stop>
</linearGradient>
</defs>
<path style="transform:translate(0, 0px); opacity:1" fill="url(#sw-gradient-0)" d="M0,294L10.9,285.8C21.8,278,44,261,65,253.2C87.3,245,109,245,131,269.5C152.7,294,175,343,196,343C218.2,343,240,294,262,245C283.6,196,305,147,327,179.7C349.1,212,371,327,393,383.8C414.5,441,436,441,458,367.5C480,294,502,147,524,73.5C545.5,0,567,0,589,8.2C610.9,16,633,33,655,49C676.4,65,698,82,720,106.2C741.8,131,764,163,785,147C807.3,131,829,65,851,40.8C872.7,16,895,33,916,89.8C938.2,147,960,245,982,245C1003.6,245,1025,147,1047,147C1069.1,147,1091,245,1113,310.3C1134.5,376,1156,408,1178,408.3C1200,408,1222,376,1244,375.7C1265.5,376,1287,408,1309,367.5C1330.9,327,1353,212,1375,138.8C1396.4,65,1418,33,1440,49C1461.8,65,1484,131,1505,171.5C1527.3,212,1549,229,1560,236.8L1570.9,245L1570.9,490L1560,490C1549.1,490,1527,490,1505,490C1483.6,490,1462,490,1440,490C1418.2,490,1396,490,1375,490C1352.7,490,1331,490,1309,490C1287.3,490,1265,490,1244,490C1221.8,490,1200,490,1178,490C1156.4,490,1135,490,1113,490C1090.9,490,1069,490,1047,490C1025.5,490,1004,490,982,490C960,490,938,490,916,490C894.5,490,873,490,851,490C829.1,490,807,490,785,490C763.6,490,742,490,720,490C698.2,490,676,490,655,490C632.7,490,611,490,589,490C567.3,490,545,490,524,490C501.8,490,480,490,458,490C436.4,490,415,490,393,490C370.9,490,349,490,327,490C305.5,490,284,490,262,490C240,490,218,490,196,490C174.5,490,153,490,131,490C109.1,490,87,490,65,490C43.6,490,22,490,11,490L0,490Z">
</path>
<defs>
<linearGradient id="sw-gradient-1" x1="0" x2="0" y1="1" y2="0">
  <stop stop-color="rgba(7.323, 128.994, 23.886, 1)" offset="0%"></stop>
  <stop stop-color="rgba(3.599, 208.682, 31.516, 1)" offset="100%"></stop>
</linearGradient>
</defs>
<path style="transform:translate(0, 50px); opacity:0.9" fill="url(#sw-gradient-1)" d="M0,196L10.9,212.3C21.8,229,44,261,65,253.2C87.3,245,109,196,131,163.3C152.7,131,175,114,196,122.5C218.2,131,240,163,262,171.5C283.6,180,305,163,327,155.2C349.1,147,371,147,393,130.7C414.5,114,436,82,458,81.7C480,82,502,114,524,114.3C545.5,114,567,82,589,57.2C610.9,33,633,16,655,8.2C676.4,0,698,0,720,32.7C741.8,65,764,131,785,163.3C807.3,196,829,196,851,163.3C872.7,131,895,65,916,57.2C938.2,49,960,98,982,171.5C1003.6,245,1025,343,1047,334.8C1069.1,327,1091,212,1113,179.7C1134.5,147,1156,196,1178,204.2C1200,212,1222,180,1244,163.3C1265.5,147,1287,147,1309,179.7C1330.9,212,1353,278,1375,310.3C1396.4,343,1418,343,1440,285.8C1461.8,229,1484,114,1505,98C1527.3,82,1549,163,1560,204.2L1570.9,245L1570.9,490L1560,490C1549.1,490,1527,490,1505,490C1483.6,490,1462,490,1440,490C1418.2,490,1396,490,1375,490C1352.7,490,1331,490,1309,490C1287.3,490,1265,490,1244,490C1221.8,490,1200,490,1178,490C1156.4,490,1135,490,1113,490C1090.9,490,1069,490,1047,490C1025.5,490,1004,490,982,490C960,490,938,490,916,490C894.5,490,873,490,851,490C829.1,490,807,490,785,490C763.6,490,742,490,720,490C698.2,490,676,490,655,490C632.7,490,611,490,589,490C567.3,490,545,490,524,490C501.8,490,480,490,458,490C436.4,490,415,490,393,490C370.9,490,349,490,327,490C305.5,490,284,490,262,490C240,490,218,490,196,490C174.5,490,153,490,131,490C109.1,490,87,490,65,490C43.6,490,22,490,11,490L0,490Z">
</path>
<defs>
<linearGradient id="sw-gradient-2" x1="0" x2="0" y1="1" y2="0">
  <stop stop-color="rgba(0, 255, 60.629, 1)" offset="0%"></stop>
  <stop stop-color="rgba(11.106, 165.423, 0, 1)" offset="100%"></stop>
</linearGradient>
</defs>
<path style="transform:translate(0, 100px); opacity:0.8" fill="url(#sw-gradient-2)" d="M0,294L10.9,245C21.8,196,44,98,65,57.2C87.3,16,109,33,131,57.2C152.7,82,175,114,196,114.3C218.2,114,240,82,262,57.2C283.6,33,305,16,327,8.2C349.1,0,371,0,393,0C414.5,0,436,0,458,8.2C480,16,502,33,524,57.2C545.5,82,567,114,589,163.3C610.9,212,633,278,655,269.5C676.4,261,698,180,720,196C741.8,212,764,327,785,383.8C807.3,441,829,441,851,408.3C872.7,376,895,310,916,285.8C938.2,261,960,278,982,285.8C1003.6,294,1025,294,1047,277.7C1069.1,261,1091,229,1113,236.8C1134.5,245,1156,294,1178,326.7C1200,359,1222,376,1244,318.5C1265.5,261,1287,131,1309,138.8C1330.9,147,1353,294,1375,318.5C1396.4,343,1418,245,1440,187.8C1461.8,131,1484,114,1505,114.3C1527.3,114,1549,131,1560,138.8L1570.9,147L1570.9,490L1560,490C1549.1,490,1527,490,1505,490C1483.6,490,1462,490,1440,490C1418.2,490,1396,490,1375,490C1352.7,490,1331,490,1309,490C1287.3,490,1265,490,1244,490C1221.8,490,1200,490,1178,490C1156.4,490,1135,490,1113,490C1090.9,490,1069,490,1047,490C1025.5,490,1004,490,982,490C960,490,938,490,916,490C894.5,490,873,490,851,490C829.1,490,807,490,785,490C763.6,490,742,490,720,490C698.2,490,676,490,655,490C632.7,490,611,490,589,490C567.3,490,545,490,524,490C501.8,490,480,490,458,490C436.4,490,415,490,393,490C370.9,490,349,490,327,490C305.5,490,284,490,262,490C240,490,218,490,196,490C174.5,490,153,490,131,490C109.1,490,87,490,65,490C43.6,490,22,490,11,490L0,490Z">
</path>
<defs>
<linearGradient id="sw-gradient-3" x1="0" x2="0" y1="1" y2="0">
  <stop stop-color="rgba(9.772, 144.932, 0.045, 1)" offset="0%"></stop>
  <stop stop-color="rgba(15.452, 229.173, 0.071, 1)" offset="100%"></stop>
</linearGradient>
</defs>
<path style="transform:translate(0, 150px); opacity:0.7" fill="url(#sw-gradient-3)" d="M0,147L10.9,187.8C21.8,229,44,310,65,351.2C87.3,392,109,392,131,359.3C152.7,327,175,261,196,245C218.2,229,240,261,262,269.5C283.6,278,305,261,327,261.3C349.1,261,371,278,393,261.3C414.5,245,436,196,458,204.2C480,212,502,278,524,269.5C545.5,261,567,180,589,130.7C610.9,82,633,65,655,98C676.4,131,698,212,720,269.5C741.8,327,764,359,785,375.7C807.3,392,829,392,851,343C872.7,294,895,196,916,196C938.2,196,960,294,982,302.2C1003.6,310,1025,229,1047,204.2C1069.1,180,1091,212,1113,236.8C1134.5,261,1156,278,1178,261.3C1200,245,1222,196,1244,204.2C1265.5,212,1287,278,1309,310.3C1330.9,343,1353,343,1375,359.3C1396.4,376,1418,408,1440,359.3C1461.8,310,1484,180,1505,155.2C1527.3,131,1549,212,1560,253.2L1570.9,294L1570.9,490L1560,490C1549.1,490,1527,490,1505,490C1483.6,490,1462,490,1440,490C1418.2,490,1396,490,1375,490C1352.7,490,1331,490,1309,490C1287.3,490,1265,490,1244,490C1221.8,490,1200,490,1178,490C1156.4,490,1135,490,1113,490C1090.9,490,1069,490,1047,490C1025.5,490,1004,490,982,490C960,490,938,490,916,490C894.5,490,873,490,851,490C829.1,490,807,490,785,490C763.6,490,742,490,720,490C698.2,490,676,490,655,490C632.7,490,611,490,589,490C567.3,490,545,490,524,490C501.8,490,480,490,458,490C436.4,490,415,490,393,490C370.9,490,349,490,327,490C305.5,490,284,490,262,490C240,490,218,490,196,490C174.5,490,153,490,131,490C109.1,490,87,490,65,490C43.6,490,22,490,11,490L0,490Z">
</path>
</svg>
