<?xml version="1.0" encoding="iso-8859-1"?>
<!-- Uploaded to: SVG Repo, www.svgrepo.com, Generator: SVG Repo Mixer Tools -->
<svg height="800px" width="800px" version="1.1" id="Layer_1" xmlns="http://www.w3.org/2000/svg" xmlns:xlink="http://www.w3.org/1999/xlink" 
	 viewBox="0 0 511.999 511.999" xml:space="preserve">
<polygon style="fill:#836F5A;" points="329.884,232.835 372.796,118.131 504.315,469.687 241.277,469.687 "/>
<polygon style="fill:#998269;" points="270.722,469.687 7.684,469.687 139.203,118.131 183.417,236.318 "/>
<polygon style="fill:#B5A593;" points="97.835,469.687 255.999,46.908 414.163,469.687 "/>
<g>
	<polygon style="fill:#ECE7E3;" points="168.829,197.318 139.205,118.131 110.081,195.981 139.705,225.605 	"/>
	<polygon style="fill:#ECE7E3;" points="402.422,197.318 372.798,118.131 343.675,195.981 373.299,225.605 	"/>
</g>
<polygon style="fill:#998269;" points="277.397,187.479 311.12,469.687 200.114,469.687 233.838,187.479 "/>
<polygon style="fill:#ECE7E3;" points="306.351,181.504 255.999,46.91 205.818,181.046 256.312,231.541 "/>
<path d="M511.512,466.994L379.994,115.439c-1.123-3.002-3.992-4.992-7.197-4.992s-6.075,1.99-7.197,4.992l-28.501,76.184
	c-0.733,1.061-1.169,2.263-1.307,3.494l-7.211,19.275L263.196,39.619c-1.123-3.002-3.991-4.992-7.197-4.992s-6.075,1.99-7.197,4.992
	L183.42,214.391l-7.419-19.83c-0.006-0.016-0.011-0.032-0.018-0.048L146.4,115.438c-1.123-3.002-3.992-4.992-7.197-4.992
	c-3.205,0-6.075,1.99-7.197,4.992L0.487,466.994c-0.882,2.36-0.553,5.002,0.882,7.072s3.795,3.305,6.314,3.305h233.593h29.444
	h233.593c2.519,0,4.879-1.235,6.314-3.305C512.064,471.995,512.394,469.354,511.512,466.994z M372.796,140.062l20.6,55.065
	l-20.271,19.689l-20.592-20.592L372.796,140.062z M208.83,190.326l14.838,14.838c-0.214,0.569-0.373,1.168-0.448,1.798
	l-29.928,250.442h-84.378L208.83,190.326z M274.097,220.027l28.367,237.379h-93.693l28.516-238.623l13.593,13.594
	c1.442,1.442,3.395,2.251,5.434,2.251c2.039,0,3.992-0.809,5.434-2.251L274.097,220.027z M317.942,457.405l-29.927-250.442
	c-0.03-0.248-0.073-0.49-0.125-0.728l15.45-15.45l99.744,266.621H317.942z M255.999,64.242l41.423,110.725l-41.109,41.109
	l-41.566-41.567L255.999,64.242z M139.203,140.062l20.667,55.243l-20.088,19.511l-20.774-20.774L139.203,140.062z M113.091,209.861
	l21.178,21.178c1.5,1.499,3.467,2.251,5.434,2.251c1.93,0,3.863-0.723,5.354-2.172l20.692-20.097l9.466,25.302L90.786,462.003
	H18.762L113.091,209.861z M421.212,462.003l-84.45-225.739c0.118-0.237,0.225-0.482,0.32-0.736l9.535-25.486l20.996,20.996
	c1.5,1.499,3.467,2.251,5.434,2.251c1.931,0,3.863-0.723,5.354-2.172l20.874-20.275l93.961,251.16H421.212z"/>
</svg>