<svg style="transform:rotate(0deg);transition:.3s" viewBox="0 0 1240 430" xmlns="http://www.w3.org/2000/svg">
  <defs>
    <linearGradient id="a" x1="1" x2="0" y1="1" y2="0">
      <stop stop-color="rgba(250, 20, 20, 1)" offset="0%"/>
      <stop offset="70%"/>
      <stop offset="100%"/>
      <animate attributeName="y1" values="100%;0%;100%" dur="15s" repeatCount="indefinite"/>
      <animate attributeName="x1" values="100%;0%;100%" dur="15s" repeatCount="indefinite"/>
    </linearGradient>
  </defs>
  <path style="transform:translate(38%,60px);opacity:1" fill="url(#a)" d="M139 2.6c-36.8 3.2-70.2 18.7-95.2 44.1C22.6 68.2 10 91.8 3.4 122.3c-3.4 15.5-3.8 38.8-1 53.2 5.1 26.1 13.3 45.7 26.9 64.1 6.6 8.9 24.4 26.7 32.7 32.5 9.6 6.8 24.3 15 25.8 14.4.7-.2 1.1-.1.8.4s.2 1.1 1.2 1.4c.9.3 5.5 1.9 10.2 3.6 16.1 5.9 27.2 7.6 49 7.6 14.6 0 21.8-.5 28.5-1.8 14.6-2.9 35.1-10 33.9-11.8-.3-.5.1-.6.9-.3 2.2.8 8.5-2.7 26.3-14.7 12.3-8.2 32.2-31 41.2-46.9 19.2-34.3 23.8-77.7 12.2-115.5-10.4-34.1-31.7-62.5-61-81.8-15.8-10.3-38.9-19.4-56.2-22.1C164.8 3 142 1 139 2.6m30.6 30.9c24.7 4.3 46.3 15.7 64.3 33.7 15.5 15.5 25.3 32.5 31.8 55.3 2.6 9.4 2.8 11.1 2.8 29 0 17.8-.2 19.7-2.9 29-5.4 19.5-13.1 34.2-25.3 48.7-10.5 12.4-28 25.5-41.9 31.4-3.8 1.6-7.1 3.2-7.2 3.6-.2.5-.7.6-1.2.3-.4-.3-3.7.4-7.2 1.4-19 5.8-43.9 6.4-61.5 1.4-3.2-.9-7.2-1.7-9-1.7-1.7-.1-2.9-.3-2.7-.5s-4.9-3-11.4-6.2c-40.4-19.9-65-57-67.7-101.9-1.5-24.1 6.5-52.3 20.8-73.5 6.6-9.8 23.9-26.4 34.2-32.7 15.1-9.3 28.9-14.7 44.5-17.3 10.5-1.8 29.1-1.8 39.6 0m-34.8 29c-30.8 5.2-55.2 24-68.1 52.7-4.1 8.9-6.1 16.1-5.4 18.8.3 1.1.2 1.8-.3 1.5-2.4-1.5-2.7 23.2-.4 34.2.8 4.2 2.4 10 3.5 12.9l2 5.4 4.1-2.1c3.2-1.6 5.4-2 9.8-1.7 15.9 1.1 23.9 20.2 13.4 31.8l-3.5 3.9 5.3 4.1c9 7.2 26.7 15.1 37.3 16.7 8.5 1.3 24.3 1.4 31 .3 23.5-4.1 45.8-17.9 59-36.4 5.5-7.7 12-21.2 14-29 3.3-13 4.1-28.8 1.8-38.2-.4-2.1-.6-2.1-5.5 1.2-6.4 4.3-11.7 5.9-20.3 5.9-13 0-25.9-8.3-31.6-20.2-7.8-16.3-2.6-35.4 12.4-45.6 2.3-1.5 4.3-2.9 4.5-3.2.7-.7-15.1-8.2-20.8-9.9-7.8-2.3-22.5-4.6-29-4.5-3 .1-9 .7-13.2 1.4"/>
  <defs>
    <linearGradient id="b" x1="1" x2="0" y1="0" y2="0">
      <stop stop-color="#3E6EF3" offset="0%"/>
      <stop stop-color="#315ACA" offset="100%"/>
      <animate attributeName="x1" values="100%;0%;100%" dur="5s" repeatCount="indefinite"/>
    </linearGradient>
  </defs>
  <path style="transform:translate(0,0);opacity:.3" fill="url(#b)" d="m0 98 26.7 49C53.3 196 107 294 160 343c53.3 49 107 49 160 8.2C373.3 310 427 229 480 220.5 533.3 212 587 278 640 294c53.3 16 107-16 160-57.2C853.3 196 907 147 960 130.7c53.3-16.7 107 .3 160-16.4 53.3-16.3 107-65.3 160-89.8C1333.3 0 1387 0 1440 49c53.3 49 107 147 160 179.7 53.3 32.3 107 .3 160-16.4 53.3-16.3 107-16.3 160-32.6 53.3-16.7 107-48.7 160-16.4C2133.3 196 2187 294 2240 343c53.3 49 107 49 160 32.7 53.3-16.7 107-48.7 160-98 53.3-48.7 107-114.7 160-106.2 53.3 8.5 107 89.5 160 89.8 53.3-.3 107-81.3 160-65.3 53.3 16 107 131 160 179.7 53.3 49.3 107 32.3 160-24.5C3413.3 294 3467 196 3520 196c53.3 0 107 98 160 147 53.3 49 107 49 133 49h27v98H0Z"/>
  <defs>
    <linearGradient id="d" x1="0" x2="0" y1="1" y2="0">
      <stop stop-color="#2F66FD" offset="0%"/>
      <stop stop-color="#1A388B" offset="100%"/>
      <animate attributeName="y1" values="100%;0%;100%" dur="5s" repeatCount="indefinite"/>
    </linearGradient>
  </defs>
  <defs>
    <linearGradient id="c" x1="0" x2="0" y1="1" y2="0">
      <stop stop-color="#1A388B" offset="0%"/>
      <stop stop-color="#2F66FD" offset="100%"/>
      <animate attributeName="y1" values="100%;0%;100%" dur="5s" repeatCount="indefinite"/>
    </linearGradient>
  </defs>
  <path style="transform:translate(0,0);opacity:.4" fill="url(#c)" d="m6912 294-48 8.2c-48 7.8-144 24.8-240-16.4C6528 245 6432 147 6336 147s-192 98-288 163.3c-96 65.7-192 97.7-288 89.9-96-8.2-192-57.2-288-106.2s-192-98-288-138.8c-96-41.2-192-73.2-288-73.5-96 .3-192 32.3-288 32.6-96-.3-192-32.3-288-32.6-96 .3-192 32.3-288 106.1-96 73.2-192 188.2-288 228.7s-192 8.5-288 8.2c-96 .3-192 32.3-288 8.1-96-24.8-192-105.8-288-147-96-40.8-192-40.8-288-73.5C2496 180 2400 114 2304 98s-192 16-288 89.8c-96 73.2-192 188.2-288 196-96 8.2-192-89.8-288-155.1-96-65.7-192-97.7-288-106.2s-192 8.5-288 8.2C768 131 672 114 576 98c-96-16-192-33-288-8.2C192 114 96 180 48 212.3L0 245V0h6912Z"/>
  <path style="transform:translate(-150px,0);opacity:.3" fill="url(#d)" d="M0 0h40c40 0 120 0 200 57.2C320 114 400 229 480 236.8 560 245 640 147 720 98c80-49 160-49 240 0s160 147 240 163.3c80 16.7 160-49.3 240-40.8s160 89.5 240 81.7c80-8.2 160-106.2 240-130.7 80-24.5 160 24.5 240 73.5s160 98 240 106.2c80 7.8 160-24.2 240-57.2s160-65 240-114.3C2960 131 3040 65 3120 49c80-16 160 16 240 81.7 80 65.3 160 163.3 240 220.5 80 56.8 160 73.8 240 16.3s160-187.5 240-204.2c80-16.3 160 81.7 240 138.9 80 56.8 160 73.8 240 40.8s160-114 240-179.7C4880 98 4960 49 5040 40.8c80-7.8 160 24.2 240 24.5 80-.3 160-32.3 240 16.4 80 49.3 160 179.3 200 245l40 65.3v98H0Z"/>
  <path style="transform:translate(-200px,0);opacity:.3" fill="url(#c)" d="M5760 490h-40c-40 0-120 0-200-57.2-80-56.8-160-171.8-240-179.6-80-8.2-160 89.8-240 138.8-80 49-160 49-240 0s-160-147-240-163.3c-80-16.7-160 49.3-240 40.8s-160-89.5-240-81.7c-80 8.2-160 106.2-240 130.7-80 24.5-160-24.5-240-73.5s-160-98-240-106.2c-80-7.8-160 24.2-240 57.2s-160 65-240 114.3C2800 359 2720 425 2640 441c-80 16-160-16-240-81.7-80-65.3-160-163.3-240-220.5-80-56.8-160-73.8-240-16.3S1760 310 1680 326.7c-80 16.3-160-81.7-240-138.9-80-56.8-160-73.8-240-40.8s-160 114-240 179.7C880 392 800 441 720 449.2c-80 7.8-160-24.2-240-24.5-80 .3-160 32.3-240-16.4C160 359 80 229 40 163.3L0 98V0h5760Z"/>
</svg>