<?xml version="1.0" standalone="no"?>
<svg xmlns:xlink="http://www.w3.org/1999/xlink" id="wave" style="transform:rotate(0deg); transition: 0.3s" 
viewBox="0 0 1440 430" 
version="1.1" xmlns="http://www.w3.org/2000/svg">
<defs>
<linearGradient id="sw-gradient-0" x1="0" x2="0" y1="1" y2="0">
  <stop stop-color="rgba(243, 106, 62, 1)" offset="0%"/>
  <stop stop-color="rgba(255, 179, 11, 1)" offset="100%"/>
  <animate attributeName="y1" values="0%;100%;0%" dur="15s" repeatCount="indefinite" />
</linearGradient></defs>
<path style="transform:translate(0, 0px); opacity:1" fill="url(#sw-gradient-0)" 
d="m 0 344 l 18.5 -43 c 18.4 -43 55.5 -129 92.5 -179.2 c 36.7 -49.8 74 -64.8 111 -14.3 c 36.5 50.5 73 164.5 110 193.5 c 37.2 29 74 -29 111 -35.8 c 37 -7.2 74 35.8 111 50.1 c 36.8 14.7 74 -0.3 111 -7.1 c 36.5 -7.2 73 -7.2 110 -7.2 c 37.3 0 74 0 111 -21.5 c 37.1 -21.5 74 -64.5 111 -93.2 c 36.8 -28.3 74 -43.3 111 -28.6 c 36.6 14.3 74 57.3 110 64.5 c 37.4 6.8 74 -21.2 111 -43 c 37.2 -21.2 74 -36.2 111 -35.9 c 36.9 -0.3 74 14.7 111 50.2 c 36.7 35.5 74 93.5 111 78.8 c 36.5 -14.3 73 -100.3 110 -129 c 37.2 -28.3 74 -0.3 111 7.2 c 37 7.5 74 -7.5 111 21.5 c 36.8 29 74 100 111 136.2 c 36.5 35.8 73 35.8 110 -14.4 c 37.3 -49.8 74 -150.8 111 -193.5 c 37.1 -43.3 74 -28.3 111 14.4 c 36.8 43.3 74 114.3 111 143.3 c 36.6 29 74 14 92 7.2 l 18.5 -7.2 l 0 172 l -18.5 0 c -18.5 0 -55 0 -92 0 c -37.2 0 -74 0 -111 0 c -37 0 -74 0 -111 0 c -36.8 0 -74 0 -111 0 c -36.5 0 -73 0 -110 0 c -37.3 0 -74 0 -111 0 c -37.1 0 -74 0 -111 0 c -36.8 0 -74 0 -111 0 c -36.6 0 -74 0 -110 0 c -37.4 0 -74 0 -111 0 c -37.2 0 -74 0 -111 0 c -36.9 0 -74 0 -111 0 c -36.7 0 -74 0 -111 0 c -36.5 0 -73 0 -110 0 c -37.2 0 -74 0 -111 0 c -37 0 -74 0 -111 0 c -36.8 0 -74 0 -111 0 c -36.5 0 -73 0 -110 0 c -37.3 0 -74 0 -111 0 c -37.1 0 -74 0 -111 0 c -36.8 0 -74 0 -111 0 c -36.6 0 -74 0 -110 0 c -37.4 0 -74 0 -111 0 c -37.2 0 -74 0 -93 0 l -18 0 z"/>
<defs>
<linearGradient id="sw-gradient-1" x1="0" x2="0" y1="1" y2="0">
<stop stop-color="rgba(243, 106, 62, 1)" offset="0%"/>
<stop stop-color="rgba(255, 179, 11, 1)" offset="100%"/>
<animate attributeName="y1" values="50%;0%;50%" dur="20s" repeatCount="indefinite" />
</linearGradient></defs>
<path style="transform:translate(0, 50px); opacity:0.9" fill="url(#sw-gradient-1)" 
d="m 0 86 l 18.5 50.2 c 18.4 49.8 55.5 150.8 92.5 150.5 c 36.7 0.3 74 -100.7 111 -150.5 c 36.5 -50.2 73 -50.2 110 -35.9 c 37.2 14.7 74 42.7 111 78.9 c 37 35.8 74 78.8 111 114.6 c 36.8 36.2 74 64.2 111 14.4 c 36.5 -50.2 73 -179.2 110 -200.7 c 37.3 -21.5 74 64.5 111 100.3 c 37.1 36.2 74 21.2 111 7.2 c 36.8 -14 74 -29 111 0 c 36.6 29 74 100 110 71.7 c 37.4 -28.7 74 -157.7 111 -207.9 c 37.2 -49.8 74 -21.8 111 -7.1 c 36.9 14.3 74 14.3 111 50.1 c 36.7 36.2 74 107.2 111 114.7 c 36.5 7.5 73 -50.5 110 -43 c 37.2 7.5 74 78.5 111 71.7 c 37 -7.2 74 -93.2 111 -129 c 36.8 -36.2 74 -21.2 111 28.6 c 36.5 50.2 73 136.2 110 114.7 c 37.3 -21.5 74 -150.5 111 -179.2 c 37.1 -28.3 74 42.7 111 78.9 c 36.8 35.8 74 35.8 111 7.1 c 36.6 -28.3 74 -86.3 92 -114.6 l 18.5 -28.7 l 0 387 l -18.5 0 c -18.5 0 -55 0 -92 0 c -37.2 0 -74 0 -111 0 c -37 0 -74 0 -111 0 c -36.8 0 -74 0 -111 0 c -36.5 0 -73 0 -110 0 c -37.3 0 -74 0 -111 0 c -37.1 0 -74 0 -111 0 c -36.8 0 -74 0 -111 0 c -36.6 0 -74 0 -110 0 c -37.4 0 -74 0 -111 0 c -37.2 0 -74 0 -111 0 c -36.9 0 -74 0 -111 0 c -36.7 0 -74 0 -111 0 c -36.5 0 -73 0 -110 0 c -37.2 0 -74 0 -111 0 c -37 0 -74 0 -111 0 c -36.8 0 -74 0 -111 0 c -36.5 0 -73 0 -110 0 c -37.3 0 -74 0 -111 0 c -37.1 0 -74 0 -111 0 c -36.8 0 -74 0 -111 0 c -36.6 0 -74 0 -110 0 c -37.4 0 -74 0 -111 0 c -37.2 0 -74 0 -93 0 l -18 0 z"/>
<defs>
<linearGradient id="sw-gradient-2" x1="0" x2="0" y1="1" y2="0">
<stop stop-color="rgba(243, 106, 62, 1)" offset="0%"/>
<stop stop-color="rgba(255, 179, 11, 1)" offset="100%"/>
<animate attributeName="y1" values="100%;0%;100%" dur="25s" repeatCount="indefinite" />
</linearGradient>
</defs>
<path style="transform:translate(0, 100px); opacity:0.8" fill="url(#sw-gradient-2)" 
d="m 0 86 l 18.5 43 c 18.4 43 55.5 129 92.5 114.7 c 36.7 -14.7 74 -128.7 111 -164.9 c 36.5 -35.8 73 7.2 110 14.4 c 37.2 6.8 74 -21.2 111 -28.7 c 37 -7.5 74 7.5 111 21.5 c 36.8 14 74 29 111 35.8 c 36.5 7.2 73 7.2 110 50.2 c 37.3 43 74 129 111 143.3 c 37.1 14.7 74 -43.3 111 -64.5 c 36.8 -21.8 74 -6.8 111 21.5 c 36.6 28.7 74 71.7 110 93.2 c 37.4 21.5 74 21.5 111 7.2 c 37.2 -14.7 74 -42.7 111 -86 c 36.9 -42.7 74 -100.7 111 -150.5 c 36.7 -50.2 74 -93.2 111 -100.4 c 36.5 -6.8 73 21.2 110 50.2 c 37.2 29 74 57 111 93.2 c 37 35.8 74 78.8 111 86 c 36.8 6.8 74 -21.2 111 -50.2 c 36.5 -29 73 -57 110 -28.7 c 37.3 28.7 74 114.7 111 150.5 c 37.1 36.2 74 21.2 111 -7.1 c 36.8 -28.7 74 -71.7 111 -121.9 c 36.6 -49.8 74 -107.8 92 -136.1 l 18.5 -28.7 l 0 387 l -18.5 0 c -18.5 0 -55 0 -92 0 c -37.2 0 -74 0 -111 0 c -37 0 -74 0 -111 0 c -36.8 0 -74 0 -111 0 c -36.5 0 -73 0 -110 0 c -37.3 0 -74 0 -111 0 c -37.1 0 -74 0 -111 0 c -36.8 0 -74 0 -111 0 c -36.6 0 -74 0 -110 0 c -37.4 0 -74 0 -111 0 c -37.2 0 -74 0 -111 0 c -36.9 0 -74 0 -111 0 c -36.7 0 -74 0 -111 0 c -36.5 0 -73 0 -110 0 c -37.2 0 -74 0 -111 0 c -37 0 -74 0 -111 0 c -36.8 0 -74 0 -111 0 c -36.5 0 -73 0 -110 0 c -37.3 0 -74 0 -111 0 c -37.1 0 -74 0 -111 0 c -36.8 0 -74 0 -111 0 c -36.6 0 -74 0 -110 0 c -37.4 0 -74 0 -111 0 c -37.2 0 -74 0 -93 0 l -18 0 z"/>
</svg>